<?xml version="1.0" standalone="no"?>
<!DOCTYPE svg PUBLIC "-//W3C//DTD SVG 20010904//EN"
 "http://www.w3.org/TR/2001/REC-SVG-20010904/DTD/svg10.dtd">
<svg version="1.0" xmlns="http://www.w3.org/2000/svg"
 width="512.000000pt" height="512.000000pt" viewBox="0 0 512.000000 512.000000"
 preserveAspectRatio="xMidYMid meet">

<g transform="translate(0.000000,512.000000) scale(0.100000,-0.100000)"
fill="#000000" stroke="none">
<path d="M2374 4190 l6 -280 -765 0 -765 0 0 -205 0 -205 476 -2 475 -3 -511
-558 c-282 -307 -510 -559 -509 -561 2 -1 72 -64 156 -139 83 -75 154 -137
157 -137 3 0 291 311 641 690 350 380 641 690 646 690 5 0 9 -26 9 -57 0 -32
9 -391 20 -798 11 -407 20 -766 20 -797 l0 -58 210 0 210 0 0 38 c0 20 -9 366
-20 767 -11 402 -20 767 -20 813 l0 82 755 0 755 0 0 220 0 220 -758 0 -759 0
-6 98 c-4 53 -7 172 -7 264 0 91 -3 173 -6 182 -5 14 -33 16 -212 16 l-205 0
7 -280z"/>
<path d="M3112 3291 l-143 -137 556 -508 c306 -279 560 -506 564 -504 13 5
266 289 268 302 2 10 -1073 977 -1093 982 -5 2 -73 -59 -152 -135z"/>
<path d="M1086 1833 c-39 -77 -427 -916 -424 -918 8 -8 364 -175 373 -175 6 0
86 164 179 363 93 199 193 412 222 474 l52 111 -186 86 c-103 48 -190 86 -194
86 -4 0 -14 -12 -22 -27z"/>
<path d="M2655 1440 c-451 -230 -824 -421 -830 -423 -5 -3 33 -88 85 -191 l94
-185 771 388 770 388 317 -298 317 -299 138 151 c76 83 138 157 138 164 0 8
-165 166 -366 352 l-367 339 -88 12 c-49 7 -105 15 -124 17 -30 4 -142 -50
-855 -415z"/>
</g>
</svg>
