<?xml version="1.0" standalone="no"?>
<!DOCTYPE svg PUBLIC "-//W3C//DTD SVG 20010904//EN"
 "http://www.w3.org/TR/2001/REC-SVG-20010904/DTD/svg10.dtd">
<svg version="1.0" xmlns="http://www.w3.org/2000/svg"
 width="512.000000pt" height="512.000000pt" viewBox="0 0 512.000000 512.000000"
 preserveAspectRatio="xMidYMid meet">

<g transform="translate(0.000000,512.000000) scale(0.100000,-0.100000)"
fill="#4190fb" stroke="none">
<path d="M2377 4318 c2 -84 5 -210 6 -280 l4 -128 -769 0 -768 0 0 -205 0
-205 480 -2 481 -3 -512 -558 c-281 -307 -509 -559 -507 -561 1 -1 69 -61 150
-134 81 -73 149 -132 152 -132 3 0 291 311 641 690 350 380 642 690 649 690 9
0 16 -165 29 -737 10 -406 20 -791 24 -855 l6 -118 198 0 199 0 0 98 c0 53 -9
426 -20 827 -11 402 -20 740 -20 753 l0 22 753 0 754 0 6 158 c4 86 7 183 7
215 l0 57 -763 0 -764 0 -6 197 c-4 108 -7 234 -7 280 l0 83 -203 0 -204 0 4
-152z"/>
<path d="M3117 3287 l-138 -133 551 -503 c303 -276 554 -501 559 -499 7 3 260
281 264 291 3 5 -1085 977 -1092 976 -3 0 -68 -60 -144 -132z"/>
<path d="M1091 1828 c-5 -13 -102 -221 -215 -463 -113 -241 -206 -442 -206
-445 0 -3 12 -11 28 -17 15 -6 97 -44 183 -86 l156 -75 218 467 c120 256 220
469 221 472 3 6 -351 169 -367 169 -5 0 -14 -10 -18 -22z"/>
<path d="M2661 1435 c-448 -228 -818 -418 -823 -423 -9 -9 161 -365 172 -359
3 1 349 175 769 385 671 337 765 381 781 370 10 -7 153 -140 318 -295 l301
-283 136 149 c75 82 137 152 138 155 1 3 -163 158 -365 344 l-366 339 -106 17
c-57 9 -113 16 -123 16 -10 0 -384 -187 -832 -415z"/>
</g>
</svg>
