<?xml version="1.0" standalone="no"?>
<!DOCTYPE svg PUBLIC "-//W3C//DTD SVG 20010904//EN"
 "http://www.w3.org/TR/2001/REC-SVG-20010904/DTD/svg10.dtd">
<svg version="1.0" xmlns="http://www.w3.org/2000/svg"
 width="512.000000pt" height="512.000000pt" viewBox="0 0 512.000000 512.000000"
 preserveAspectRatio="xMidYMid meet">

<g transform="translate(0.000000,512.000000) scale(0.100000,-0.100000)"
fill="#000000" stroke="none">
<path d="M2376 4330 c2 -77 6 -203 8 -280 l3 -140 -763 0 -764 0 0 -205 0
-205 476 -2 475 -3 -511 -558 c-282 -307 -510 -559 -509 -561 2 -1 70 -61 151
-134 81 -73 149 -132 152 -132 3 0 291 311 641 690 350 380 642 690 648 690
10 0 17 -161 30 -737 10 -406 20 -791 24 -855 l6 -118 198 0 199 0 0 93 c0 50
-9 421 -20 822 -11 402 -20 742 -20 758 l0 27 755 0 755 0 0 58 c0 31 3 128 7
215 l6 157 -765 0 -765 0 -6 188 c-4 103 -7 229 -7 280 l0 92 -204 0 -203 0 3
-140z"/>
<path d="M3117 3286 l-138 -132 550 -502 c303 -276 554 -502 558 -501 11 1
258 278 260 292 2 11 -1062 968 -1083 973 -5 2 -71 -57 -147 -130z"/>
<path d="M1071 1783 c-289 -616 -403 -864 -400 -866 2 -2 85 -41 185 -88 l180
-86 219 466 c120 256 220 469 221 472 3 5 -351 169 -366 169 -4 0 -22 -30 -39
-67z"/>
<path d="M2661 1435 c-448 -228 -819 -419 -823 -423 -6 -6 28 -84 78 -185 l88
-175 769 384 c676 338 771 383 787 372 10 -7 153 -140 318 -295 l301 -283 134
148 c74 81 136 150 138 154 2 4 -161 160 -363 346 l-366 339 -106 17 c-57 9
-113 16 -123 16 -10 0 -384 -187 -832 -415z"/>
</g>
</svg>
